<?xml version="1.0" encoding="utf-8"?>
<!-- Generator: Adobe Illustrator 26.4.1, SVG Export Plug-In . SVG Version: 6.00 Build 0)  -->
<svg version="1.1" id="Layer_1" xmlns="http://www.w3.org/2000/svg" xmlns:xlink="http://www.w3.org/1999/xlink" x="0px" y="0px"
	 viewBox="0 0 100 100" style="enable-background:new 0 0 100 100;" xml:space="preserve">
<style type="text/css">
	.st0{fill:#1F1F1F;}
</style>
<g>
	<path class="st0" d="M39.1,95c-2.4-0.75-3.46-2.47-3.93-4.87c-0.95-4.88-2.11-9.72-3.14-14.59c-0.16-0.76-0.44-1.03-1.26-1.01
		c-2.34,0.06-3.07-0.72-3.08-3.09c0-0.59,0-1.17,0-1.76c0.01-1.94,0.85-2.8,2.76-2.8c2.25,0,4.51,0,6.9,0
		c-0.12-0.39-0.21-0.71-0.32-1.02c-1.16-3.48-2.07-7.01-2.22-10.71c-0.19-4.76,1.3-8.92,4.43-12.5c0.25-0.29,0.52-0.56,0.77-0.84
		c0.04-0.04,0.05-0.1,0.09-0.17c-1.91-1.23-3.84-2.43-5.73-3.7c-3.73-2.52-7.15-5.41-10-8.92c-2.29-2.82-3.97-5.88-4.2-9.65
		c-0.42-6.8,4.86-13.34,11.61-14.23c7.17-0.94,13.25,3.07,15.57,10.14c2.19,6.65,2.51,13.49,2.4,20.4c-0.01,0.35,0,0.7,0,1.13
		c1.92,0,3.84,0,5.81,0c0.07-1.66,0.1-3.44,0.23-5.21c0.31-4.26,1.07-8.41,3.01-12.28c2.84-5.65,9.89-7.8,15.4-4.65
		c5.53,3.16,7.27,10.4,3.78,15.71c-0.53,0.81-1.25,1.04-1.93,0.62c-0.67-0.42-0.81-1.16-0.3-2c1.56-2.58,1.86-5.28,0.66-8.06
		c-1.27-2.93-3.58-4.64-6.71-5c-3.12-0.36-5.78,0.74-7.7,3.29c-1.83,2.43-2.51,5.32-3.04,8.24c-0.63,3.44-0.75,6.92-0.67,10.42
		c0.04,1.82-0.5,2.29-2.27,1.89c-2.3-0.52-4.58-0.54-6.87-0.04c-1.57,0.34-2.24-0.21-2.14-1.82c0.28-5.05,0.2-10.08-0.55-15.08
		c-0.52-3.49-1.27-6.92-3.15-9.98c-3.16-5.14-9.96-6.78-15.09-3.67c-5.27,3.2-6.99,9.9-3.9,15.17c2.33,3.97,5.61,7.07,9.28,9.73
		c2.91,2.11,6.01,3.96,9.05,5.88c1.4,0.89,1.54,1.72,0.28,2.8c-4.69,4.01-6.29,9.13-5.19,15.08c0.53,2.83,1.47,5.59,2.21,8.39
		c0.13,0.49,0.37,0.68,0.91,0.68c7.74-0.02,15.47-0.01,23.21-0.03c0.28,0,0.75-0.18,0.82-0.39c1.52-4.14,2.82-8.34,2.64-12.81
		c-0.17-4.21-1.91-7.73-5.06-10.55c-0.15-0.14-0.31-0.26-0.47-0.4c-1.1-1-1-1.84,0.26-2.65c2.24-1.43,4.47-2.89,6.72-4.32
		c0.34-0.21,0.79-0.51,1.1-0.43c0.45,0.11,0.94,0.46,1.19,0.85c0.36,0.58,0.02,1.15-0.49,1.52c-1.39,0.98-2.8,1.93-4.2,2.88
		c-0.55,0.37-1.12,0.71-1.57,1c1.1,1.6,2.29,3.06,3.18,4.69c2.18,3.98,2.45,8.26,1.56,12.63c-0.47,2.29-1.14,4.53-1.73,6.79
		c-0.09,0.36-0.23,0.72-0.37,1.18c0.35,0.02,0.63,0.04,0.9,0.04c2.58,0,5.16,0,7.74,0c1.73,0.01,2.58,0.86,2.59,2.59
		c0.01,0.94,0.02,1.88-0.01,2.81c-0.04,1.32-0.89,2.17-2.21,2.25c-0.58,0.04-1.17,0.01-1.83,0.01c-0.49,2.23-0.98,4.42-1.45,6.62
		c-0.72,3.29-1.44,6.57-2.14,9.87c-0.44,2.07-1.74,3.3-3.67,3.97C58.1,95,48.6,95,39.1,95z M76.22,69.58c-15.34,0-30.56,0-45.8,0
		c0,0.8,0,1.53,0,2.33c0.63,0,1.18,0,1.74,0c1.9,0,3.81,0,5.71,0.01c0.8,0,1.26,0.45,1.36,1.22c0.09,0.66-0.45,1.25-1.21,1.37
		c-0.4,0.06-0.82,0.04-1.23,0.04c-0.74,0.01-1.48,0-2.28,0c0.34,1.56,0.61,2.97,0.96,4.36c0.08,0.32,0.38,0.65,0.66,0.84
		c1.3,0.85,2.65,1.62,3.95,2.47c0.46,0.3,0.79,0.31,1.25,0.01c1.52-0.99,3.09-1.9,4.62-2.88c0.73-0.47,1.38-0.48,2.12-0.01
		c1.55,0.99,3.12,1.97,4.72,2.89c0.27,0.16,0.8,0.16,1.07,0.01c1.6-0.92,3.16-1.9,4.71-2.9c0.73-0.47,1.39-0.47,2.12,0
		c1.55,1,3.12,1.97,4.71,2.9c0.26,0.15,0.75,0.19,0.99,0.05c1.45-0.83,2.86-1.72,4.27-2.61c0.2-0.13,0.41-0.36,0.46-0.58
		c0.35-1.47,0.67-2.95,1.02-4.54c-0.44,0-0.79,0-1.14,0c-7.62,0-15.24,0-22.86,0c-1.36,0-1.99-0.41-2.01-1.3
		c-0.02-0.92,0.61-1.34,2.03-1.34c9,0,17.99,0,26.99,0c0.34,0,0.68,0,1.07,0C76.22,71.08,76.22,70.36,76.22,69.58z M36.53,83.13
		c-0.04,0.18-0.08,0.27-0.07,0.34c0.53,2.46,1.04,4.92,1.62,7.37c0.25,1.04,1.01,1.52,2.18,1.52c8.7,0.01,17.4,0.01,26.09,0
		c1.31,0,1.99-0.56,2.29-1.84c0.26-1.11,0.49-2.23,0.73-3.34c0.29-1.32,0.58-2.64,0.91-4.15c-1.2,0.74-2.24,1.33-3.23,2
		c-0.79,0.54-1.47,0.5-2.26-0.01c-1.52-0.99-3.09-1.9-4.62-2.88c-0.4-0.26-0.69-0.26-1.09,0c-1.53,0.98-3.1,1.89-4.62,2.88
		c-0.79,0.51-1.47,0.53-2.26,0.01c-1.49-0.98-3.05-1.86-4.54-2.84c-0.5-0.33-0.85-0.29-1.32,0.02c-1.5,0.97-3.05,1.86-4.54,2.83
		c-0.76,0.5-1.43,0.5-2.19,0C38.63,84.37,37.59,83.78,36.53,83.13z"/>
	<path class="st0" d="M35.57,11.95c-0.43,0.89-0.7,1.64-1.13,2.27c-0.34,0.5-1.02,0.62-1.48,0.22c-0.36-0.32-0.68-0.92-0.65-1.36
		c0.05-0.6,0.34-1.28,0.74-1.73c0.3-0.34,0.99-0.58,1.42-0.48C34.89,10.97,35.19,11.56,35.57,11.95z"/>
	<path class="st0" d="M33.38,29.73c-0.32-0.27-0.78-0.5-1-0.88c-0.48-0.81,0.48-2.82,1.39-3.06c0.72-0.19,1.68,0.37,1.55,1.09
		c-0.16,0.87-0.65,1.69-1.06,2.5C34.17,29.55,33.8,29.57,33.38,29.73z"/>
	<path class="st0" d="M41.06,19.62c0.01,0.96-0.34,1.43-1.02,1.58c-0.65,0.14-1.18-0.13-1.42-0.73c-0.23-0.56-0.38-1.17-0.46-1.77
		c-0.09-0.7,0.31-1.18,0.97-1.36c0.64-0.17,1.18,0.1,1.44,0.69C40.82,18.61,40.95,19.24,41.06,19.62z"/>
	<path class="st0" d="M41.37,30.93c-0.03-0.99,0.33-1.45,1-1.61c0.65-0.16,1.18,0.12,1.43,0.72c0.23,0.56,0.39,1.16,0.47,1.76
		c0.1,0.7-0.3,1.18-0.96,1.37c-0.64,0.18-1.19-0.08-1.45-0.67C41.61,31.92,41.48,31.28,41.37,30.93z"/>
	<path class="st0" d="M63.11,30.85c0-0.86,0.3-1.33,0.94-1.52c0.64-0.19,1.21,0.03,1.46,0.63c0.26,0.61,0.42,1.27,0.51,1.92
		c0.09,0.67-0.33,1.1-0.95,1.28c-0.65,0.18-1.19-0.09-1.45-0.67C63.36,31.92,63.24,31.28,63.11,30.85z"/>
	<path class="st0" d="M65.87,22.78c-0.02,0.92-0.37,1.36-1,1.51c-0.64,0.15-1.2-0.08-1.44-0.69c-0.24-0.59-0.4-1.22-0.47-1.85
		c-0.08-0.65,0.29-1.13,0.93-1.29c0.63-0.15,1.2,0.02,1.46,0.65C65.6,21.71,65.75,22.37,65.87,22.78z"/>
	<path class="st0" d="M51.27,42.9c0.09,0.02,0.27,0.02,0.43,0.09c0.93,0.36,1,1.22,0.25,2.8c-0.42,0.9-1.15,1.21-1.9,0.81
		c-0.13-0.07-0.25-0.15-0.35-0.26c-0.67-0.79-0.18-1.53,0.12-2.28C50.07,43.43,50.41,42.9,51.27,42.9z"/>
	<path class="st0" d="M64.79,55.25c-0.43,0.88-0.68,1.66-1.16,2.24c-0.24,0.29-1.04,0.43-1.38,0.24c-0.38-0.21-0.78-0.87-0.73-1.29
		c0.07-0.66,0.39-1.37,0.81-1.89c0.26-0.32,0.97-0.52,1.36-0.4C64.12,54.28,64.41,54.84,64.79,55.25z"/>
	<path class="st0" d="M43.2,58.52c-0.43,0.87-0.69,1.67-1.19,2.27c-0.23,0.28-1.03,0.37-1.39,0.19c-0.37-0.18-0.76-0.84-0.7-1.23
		c0.1-0.69,0.41-1.42,0.85-1.97c0.25-0.31,0.97-0.46,1.38-0.35C42.54,57.55,42.81,58.1,43.2,58.52z"/>
	<path class="st0" d="M59.06,60.88c-0.41,0.85-0.65,1.63-1.13,2.21c-0.24,0.29-0.96,0.36-1.4,0.27c-0.6-0.13-0.9-0.71-0.74-1.3
		c0.18-0.66,0.39-1.39,0.82-1.89c0.27-0.32,1.01-0.49,1.44-0.38C58.45,59.89,58.71,60.47,59.06,60.88z"/>
	<path class="st0" d="M48.28,63.93c-0.02,0.93-0.37,1.36-1,1.51c-0.64,0.15-1.2-0.08-1.44-0.69c-0.24-0.59-0.4-1.22-0.47-1.85
		c-0.08-0.65,0.29-1.13,0.93-1.29c0.63-0.15,1.2,0.03,1.46,0.65C48.02,62.86,48.16,63.52,48.28,63.93z"/>
	<path class="st0" d="M29.97,20.29c0.01,0.91-0.3,1.38-0.94,1.55c-0.67,0.18-1.25-0.04-1.52-0.69c-0.23-0.56-0.4-1.16-0.47-1.76
		c-0.09-0.69,0.29-1.19,0.96-1.37c0.63-0.17,1.19,0.07,1.45,0.68C29.7,19.27,29.85,19.9,29.97,20.29z"/>
	<path class="st0" d="M41.36,48.49c0.01-0.91,0.33-1.36,0.98-1.51c0.64-0.15,1.2,0.05,1.45,0.67c0.23,0.56,0.39,1.16,0.48,1.76
		c0.11,0.7-0.26,1.2-0.92,1.39c-0.67,0.2-1.24-0.07-1.52-0.71C41.59,49.52,41.47,48.89,41.36,48.49z"/>
	<path class="st0" d="M52.84,55.56c0.02,0.97-0.35,1.4-0.96,1.58c-0.64,0.18-1.2-0.07-1.46-0.67c-0.26-0.61-0.51-1.29-0.47-1.93
		c0.03-0.43,0.49-0.98,0.9-1.2c0.55-0.29,1.19-0.05,1.46,0.58C52.58,54.53,52.72,55.19,52.84,55.56z"/>
	<path class="st0" d="M73.33,24.3c-0.42,0.86-0.68,1.66-1.17,2.27c-0.23,0.28-1.02,0.39-1.39,0.21c-0.36-0.17-0.75-0.83-0.7-1.22
		c0.09-0.69,0.39-1.42,0.82-1.97c0.24-0.31,0.96-0.48,1.37-0.37C72.65,23.33,72.94,23.88,73.33,24.3z"/>
	<path class="st0" d="M60.76,47.88c0.02,0.95-0.3,1.41-0.94,1.58c-0.63,0.17-1.21-0.03-1.47-0.64c-0.26-0.61-0.43-1.27-0.5-1.93
		c-0.07-0.65,0.34-1.21,0.97-1.24c0.46-0.02,1.12,0.25,1.38,0.61C60.56,46.79,60.64,47.51,60.76,47.88z"/>
</g>
</svg>
