<?xml version="1.0" encoding="utf-8"?>
<!-- Generator: Adobe Illustrator 26.4.1, SVG Export Plug-In . SVG Version: 6.00 Build 0)  -->
<svg version="1.1" id="Layer_1" xmlns="http://www.w3.org/2000/svg" xmlns:xlink="http://www.w3.org/1999/xlink" x="0px" y="0px"
	 viewBox="0 0 100 100" style="enable-background:new 0 0 100 100;" xml:space="preserve">
<style type="text/css">
	.st0{fill:#082A20;}
</style>
<path class="st0" d="M39.63,95c-1.7-0.41-3.39-0.84-4.89-1.84c-2.9-1.93-4.52-4.65-5.13-8.04c-0.83-4.61-1.71-9.2-2.55-13.81
	c-0.1-0.55-0.27-0.81-0.88-0.97c-1.84-0.49-3.04-1.71-3.46-3.59c-0.42-1.89,0.2-3.46,1.64-4.71c0.22-0.19,0.47-0.34,0.74-0.54
	c-0.07-0.09-0.12-0.2-0.2-0.26c-4.96-3.45-7.84-8.22-9.16-14.06c-1.26-5.52-1.73-11.1-1.4-16.74c0.09-1.5,0.97-2,2.33-1.3
	c1.82,0.93,3.62,1.91,5.54,2.93c-0.04-0.29-0.06-0.5-0.1-0.7c-1.21-5.79-1.32-11.55,0.44-17.27c0.38-1.24,0.97-1.53,2.17-1.06
	c4.45,1.73,8.19,4.49,11.51,7.86c0.65,0.66,1.26,1.37,1.98,2.16c0.27-0.62,0.49-1.15,0.71-1.68c2.37-5.73,5.46-11,9.74-15.53
	c1.05-1.11,1.61-1.1,2.67,0.03c4.25,4.51,7.32,9.76,9.7,15.46c0.22,0.53,0.44,1.07,0.72,1.73c0.69-0.75,1.27-1.42,1.89-2.06
	c3.32-3.42,7.09-6.2,11.56-7.94c1.27-0.5,1.83-0.23,2.23,1.07c1.3,4.2,1.58,8.5,1.1,12.85c-0.19,1.68-0.48,3.34-0.72,5.06
	c1.8-0.96,3.57-1.92,5.37-2.84c1.56-0.8,2.38-0.3,2.47,1.45c0.36,6.66-0.26,13.23-2.3,19.6c-1.32,4.12-3.77,7.5-7.19,10.17
	c-0.2,0.16-0.39,0.33-0.68,0.57c1.3,0.34,2.35,0.91,3.09,1.96c0.74,1.05,1.06,2.21,0.86,3.49c-0.44,2.74-2.04,3.81-6.36,4.17
	c-0.31,1.63-0.62,3.28-0.93,4.94c-0.63,3.39-1.22,6.79-1.91,10.18c-1,4.92-4.5,8.26-9.46,9.15c-0.14,0.03-0.27,0.09-0.41,0.14
	C53.45,95,46.54,95,39.63,95z M29.58,70.54c0.97,5.12,1.8,10.15,2.9,15.11c0.9,4.05,4.16,6.62,8.29,6.68
	c6.15,0.09,12.3,0.08,18.45,0c4.09-0.05,7.33-2.62,8.28-6.58c0.75-3.12,1.24-6.31,1.83-9.47c0.35-1.88,0.7-3.77,1.06-5.73
	c-0.46,0-0.81,0-1.15,0c-8.2,0-16.4,0-24.6,0c-0.26,0-0.53,0.01-0.79-0.01c-0.92-0.06-1.45-0.55-1.46-1.32
	c0-0.81,0.55-1.28,1.53-1.31c0.26-0.01,0.53,0,0.79,0c9.75,0,19.51,0,29.26,0c0.41,0,0.83,0,1.22-0.09
	c0.87-0.19,1.58-0.98,1.66-1.83c0.09-0.9-0.28-1.64-1.07-2.04c-0.47-0.24-1.06-0.35-1.59-0.35c-15.44-0.02-30.87-0.02-46.31-0.01
	c-0.35,0-0.71,0.02-1.04,0.11c-1.58,0.44-2.18,2.36-1,3.46c0.46,0.43,1.24,0.7,1.88,0.72c2.11,0.09,4.22,0.02,6.32,0.04
	c0.9,0.01,1.48,0.52,1.5,1.27c0.02,0.73-0.55,1.28-1.44,1.35c-0.29,0.02-0.59,0.01-0.88,0.01C32.06,70.54,30.89,70.54,29.58,70.54z
	 M80.77,33.64c-0.07-0.08-0.14-0.15-0.2-0.23c-4.53,2.79-9.05,5.6-13.6,8.35c-5.99,3.63-10.16,8.81-13.04,15.11
	c-0.59,1.29-1.08,2.63-1.62,3.94c0.06,0.09,0.12,0.18,0.17,0.27c0.77-0.19,1.59-0.26,2.29-0.6c4.58-2.22,8.56-5.29,12.1-8.91
	c2.39-2.44,4.57-5.1,6.84-7.65c0.63-0.7,1.42-0.84,2-0.35c0.59,0.5,0.65,1.23,0.08,1.96c-4.39,5.56-9.24,10.65-15.17,14.63
	c-0.3,0.2-0.59,0.41-0.98,0.68c0.24,0.06,0.32,0.09,0.4,0.09c3.25,0,6.5,0.01,9.75,0c0.22,0,0.47-0.06,0.67-0.15
	c4.86-2.22,8.32-5.78,10.19-10.8c1.3-3.48,1.86-7.12,2.2-10.8c0.12-1.29,0.17-2.59,0.26-3.9c-0.16,0-0.21-0.01-0.21,0
	c-0.44,0.69-0.87,1.38-1.33,2.07c-0.55,0.82-1.27,1.06-1.93,0.66c-0.7-0.43-0.81-1.19-0.29-2.07C79.81,35.16,80.3,34.4,80.77,33.64z
	 M48.62,9.94c-0.29,0.36-0.47,0.58-0.64,0.8c-2.97,3.85-5.26,8.09-7.02,12.61c-2.16,5.55-3.37,11.31-3.77,17.25
	c-0.02,0.36,0.16,0.89,0.43,1.1c4.66,3.57,8.01,8.16,10.54,13.4c0.1,0.21,0.23,0.41,0.45,0.8C48.62,40.49,48.62,25.31,48.62,9.94z
	 M51.42,9.99c0,15.33,0,30.51,0,45.69c0.27-0.28,0.4-0.57,0.54-0.85c2.42-4.92,5.55-9.3,9.92-12.68c0.77-0.6,1.03-1.18,0.94-2.12
	c-0.66-7.2-2.34-14.13-5.5-20.65C55.71,16.07,53.83,12.95,51.42,9.99z M19.14,33.39c3.18,5.89,9.73,14.27,14.94,19.12
	c3.4,3.16,7.04,6,11.25,8.03c0.67,0.32,1.47,0.36,2.21,0.52c0.07-0.1,0.14-0.19,0.21-0.29c-0.9-1.99-1.72-4.02-2.72-5.96
	c-2.25-4.38-5.15-8.31-9.24-11.09c-4.45-3.03-9.09-5.77-13.65-8.62C21.24,34.53,20.28,34.04,19.14,33.39z M16.98,35.07
	c-0.03,0.32-0.05,0.43-0.05,0.54c0.11,4.38,0.68,8.69,1.91,12.9c1.46,5.01,4.48,8.82,9,11.42c0.92,0.53,1.84,1.06,3.02,1.03
	c2.69-0.08,5.39-0.02,8.08-0.02c0.42,0,0.85,0,1.27,0C30.36,54.24,23.28,45.15,16.98,35.07z M24.38,17.98
	c-0.08,0.29-0.15,0.48-0.18,0.68c-0.78,5.07-0.25,10.03,1.26,14.9c0.09,0.28,0.3,0.58,0.54,0.74c2.75,1.73,5.51,3.43,8.27,5.13
	c0.06,0.04,0.16,0.02,0.43,0.06c-0.1-0.54-0.09-1.05-0.29-1.45c-3.21-6.5-6.45-12.98-9.69-19.46
	C24.65,18.39,24.53,18.23,24.38,17.98z M75.85,18.08c-0.09-0.01-0.18-0.01-0.27-0.02c-0.08,0.11-0.18,0.21-0.24,0.33
	c-3.29,6.59-6.58,13.18-9.84,19.78c-0.18,0.36-0.11,0.85-0.18,1.49c3.1-1.92,5.96-3.68,8.8-5.47c0.23-0.15,0.37-0.51,0.46-0.8
	c0.91-2.86,1.46-5.79,1.53-8.78C76.15,22.44,75.95,20.26,75.85,18.08z M35.27,33.59c0.62-2.44,1.23-4.76,1.79-7.09
	c0.06-0.26-0.01-0.65-0.17-0.86c-2.27-2.99-4.99-5.5-8.12-7.57c-0.54-0.36-1.11-0.67-1.85-1.1C29.76,22.63,32.5,28.07,35.27,33.59z
	 M73.08,16.94c-3.74,2.15-6.74,4.77-9.36,7.85c-0.76,0.89-0.87,1.66-0.55,2.74c0.59,1.96,1.02,3.97,1.54,6.08
	C67.5,28.07,70.23,22.62,73.08,16.94z"/>
</svg>
