<?xml version="1.0" encoding="utf-8"?>
<!-- Generator: Adobe Illustrator 26.4.1, SVG Export Plug-In . SVG Version: 6.00 Build 0)  -->
<svg version="1.1" id="Layer_1" xmlns="http://www.w3.org/2000/svg" xmlns:xlink="http://www.w3.org/1999/xlink" x="0px" y="0px"
	 viewBox="0 0 40 40" style="enable-background:new 0 0 40 40;" xml:space="preserve">
<style type="text/css">
	.st0{fill:#107456;}
</style>
<g>
	<path class="st0" d="M21.92,25.91c-2.26,0-4.52,0.01-6.77,0c-2.01-0.02-3.69-1.33-4.24-3.27c-0.69-2.41-1.38-4.82-2.07-7.24
		c-0.71-2.47-1.41-4.94-2.11-7.41c-0.16-0.55-0.31-1.1-0.47-1.65C6.03,5.6,5.5,5.21,4.73,5.2C4.37,5.19,3.99,5.21,3.65,5.13
		C2.94,4.95,2.52,4.24,2.62,3.52c0.1-0.71,0.7-1.25,1.42-1.26C4.72,2.25,5.4,2.22,6.06,2.43c1.51,0.49,2.52,1.49,2.99,3.01
		c0.26,0.85,0.5,1.71,0.74,2.57C9.83,8.14,9.88,8.17,10,8.17c1.67,0,3.34,0,5.02,0c4.08,0,8.15,0,12.23,0c2.37,0,4.74,0,7.11,0
		c1.18,0,2.09,0.51,2.67,1.54c0.46,0.82,0.49,1.68,0.15,2.55c-0.88,2.2-1.76,4.39-2.63,6.59c-0.56,1.41-1.13,2.82-1.69,4.23
		c-0.69,1.73-2.25,2.82-4.12,2.84C26.45,25.93,24.18,25.91,21.92,25.91C21.92,25.91,21.92,25.91,21.92,25.91z M10.69,11.13
		c0.07,0.26,0.14,0.51,0.21,0.75c0.94,3.29,1.89,6.59,2.83,9.88c0.23,0.8,0.75,1.19,1.58,1.19c1.97,0,3.94,0,5.9,0
		c2.49,0,4.97,0,7.46,0c0.65,0,1.17-0.35,1.41-0.96c0.12-0.28,0.23-0.57,0.34-0.85c1.22-3.06,2.45-6.12,3.67-9.18
		c0.11-0.27,0.22-0.54,0.33-0.83C26.51,11.13,18.61,11.13,10.69,11.13z"/>
	<path class="st0" d="M27.73,37.75c-2.48-0.02-4.44-2.01-4.42-4.5c0.01-2.41,2.03-4.39,4.46-4.38c2.45,0.02,4.43,2.02,4.41,4.48
		C32.15,35.78,30.16,37.76,27.73,37.75z M26.26,33.29c-0.02,0.8,0.63,1.48,1.44,1.5c0.82,0.02,1.51-0.62,1.53-1.43
		c0.02-0.83-0.62-1.51-1.44-1.53C26.95,31.81,26.28,32.45,26.26,33.29z"/>
	<path class="st0" d="M11.47,33.3c0.01-2.44,2.02-4.44,4.44-4.42c2.49,0.01,4.45,2,4.43,4.5c-0.02,2.42-2.03,4.39-4.46,4.37
		C13.44,37.73,11.46,35.72,11.47,33.3z M15.91,34.79c0.82,0,1.48-0.65,1.48-1.47c0-0.82-0.65-1.49-1.46-1.49
		c-0.83,0-1.49,0.64-1.5,1.47C14.43,34.13,15.08,34.78,15.91,34.79z"/>
</g>
</svg>
