<?xml version="1.0" encoding="utf-8"?>
<!-- Generator: Adobe Illustrator 26.4.1, SVG Export Plug-In . SVG Version: 6.00 Build 0)  -->
<svg version="1.1" id="Layer_1" xmlns="http://www.w3.org/2000/svg" xmlns:xlink="http://www.w3.org/1999/xlink" x="0px" y="0px"
	 viewBox="0 0 100 100" style="enable-background:new 0 0 100 100;" xml:space="preserve">
<style type="text/css">
	.st0{fill:#082A20;}
</style>
<path class="st0" d="M71.87,52.9c0.66,0.1,1.16,0.15,1.65,0.26c4.8,1,8.15,3.78,10.05,8.28c3.34,7.96,6.65,15.93,9.97,23.9
	c0.42,1,0.85,2,1.25,3.01c0.37,0.92,0.18,1.66-0.51,2.06c-0.73,0.43-1.47,0.21-2.08-0.66c-3.66-5.22-7.32-10.45-10.98-15.67
	c-0.18-0.26-0.38-0.51-0.73-0.98c0,2.1,0,3.96,0,5.82c0,2.36-0.43,4.65-1.48,6.76c-2.94,5.91-7.74,9.16-14.34,9.25
	c-9.77,0.14-19.53,0.07-29.3,0.03c-8.73-0.04-15.78-7.12-15.84-15.84c-0.03-4.75-0.01-9.49,0-14.24c0-1.34,0.51-1.83,1.88-1.84
	c1.29-0.01,2.59,0,3.92,0c0-1.01,0.02-1.94-0.02-2.87c-0.01-0.19-0.21-0.43-0.39-0.54c-5.45-3.62-9.73-8.39-13.5-13.66
	c-1.9-2.65-3.9-5.24-5.87-7.84c-0.52-0.69-0.82-1.38-0.2-2.13c0.58-0.71,1.29-0.6,2.05-0.27c4.63,2,9.27,3.98,13.9,5.96
	c0.27,0.12,0.55,0.23,1,0.41c-0.14-0.38-0.2-0.62-0.3-0.84c-4.51-9.49-6.33-19.47-5.63-29.94c0.1-1.51,0.16-3.02,0.23-4.53
	c0.05-1.11,0.46-1.69,1.27-1.8c0.77-0.1,1.33,0.32,1.68,1.32c3.32,9.39,6.64,18.78,9.95,28.17c1.22,3.44,2.43,6.88,3.8,10.3
	c-0.08-0.62-0.16-1.24-0.25-1.85c-1.65-11.21,1.31-20.99,9.11-29.26c0.57-0.6,1.19-0.96,2-0.51c0.71,0.4,0.83,1.04,0.69,1.8
	c-1.05,5.61-2.16,11.21-3.09,16.84c-0.36,2.16-0.3,4.39-0.43,6.59c-0.01,0.1,0.04,0.2,0.19,0.31c0.22-1.41,0.41-2.83,0.68-4.23
	c1.4-7.27,4-14.08,8.54-19.98C55,8.96,60.76,5.89,67.72,5.14c0.75-0.08,1.51-0.1,2.26-0.15c0.69-0.05,1.26,0.14,1.61,0.77
	c0.36,0.65,0.12,1.21-0.25,1.77c-1.7,2.57-3.48,5.09-5.05,7.74c-5.19,8.75-8.73,18.15-10.78,28.11c-0.04,0.18-0.06,0.36-0.07,0.54
	c0,0.04,0.04,0.09,0.12,0.25c0.41-0.96,0.79-1.83,1.16-2.71c2.23-5.46,4.51-10.91,8.07-15.66c2.08-2.78,4.26-5.51,6.69-7.98
	c6.82-6.97,18.2-4.83,22.19,4.06c0.41,0.91,0.77,1.84,1.17,2.75c0.29,0.66,0.2,1.26-0.32,1.74c-0.56,0.52-1.2,0.5-1.84,0.11
	c-1.58-0.95-3.15-1.91-4.74-2.84c-3.74-2.2-8-1.42-10.59,2.01c-4.45,5.9-8.39,12.12-11.9,18.62c-0.07,0.12-0.11,0.25-0.25,0.56
	c0.83-0.49,1.48-0.9,2.16-1.26c10.42-5.63,23.25-0.46,26.85,10.82c0.24,0.75,0.43,1.51,0.68,2.25c0.25,0.76,0.1,1.4-0.57,1.83
	c-0.73,0.47-1.38,0.23-1.95-0.34c-1.6-1.61-3.19-3.22-4.82-4.81c-4.08-3.98-10.25-4.42-14.86-1.07C72.45,52.4,72.23,52.6,71.87,52.9
	z M22.42,65.97c0,0.35,0,0.62,0,0.88c0,4.02-0.01,8.04,0,12.06c0.03,7.35,5.77,13.13,13.11,13.15c9.64,0.02,19.29,0.02,28.93,0
	c7.34-0.02,13.08-5.8,13.11-13.15c0.01-2.54-0.11-5.09,0.04-7.62c0.11-1.79-0.4-3.21-1.51-4.55c-0.46-0.56-0.9-0.83-1.65-0.82
	C62.31,65.95,50.15,65.95,38,65.95c-0.33,0-0.66,0-1.03,0c-0.13,0.37-0.26,0.7-0.37,1.04c-1.82,5.69-2.65,11.52-2.56,17.49
	c0.01,0.85-0.26,1.52-1.12,1.74c-0.88,0.22-1.41-0.28-1.78-1.04c-2.18-4.47-3.78-9.15-4.72-14.03c-0.33-1.71-0.57-3.43-0.85-5.17
	C24.53,65.97,23.54,65.97,22.42,65.97z M67.42,8.06c-5.73,0.9-10.38,3.28-13.85,7.55c-4.75,5.86-7.29,12.74-8.66,20.09
	c-0.84,4.52-0.72,9.09-0.7,13.65c0,0.29,0.09,0.6,0.2,0.87c1.62,4.07,3.26,8.13,4.86,12.2c0.22,0.57,0.51,0.77,1.29,0.46
	C50.86,43.14,56,24.76,67.42,8.06z M89.96,21.21c-0.17-0.23-0.33-0.47-0.51-0.7c-4-4.89-11.3-5.26-15.83-0.78
	c-4.4,4.35-8.09,9.26-10.68,14.88c-2.88,6.25-5.46,12.63-8.2,18.95c-0.57,1.31-1.01,2.62-1.05,4.08c-0.04,1.64-0.2,3.28-0.31,4.91
	c0.32-0.21,0.46-0.46,0.57-0.72c1.1-2.48,2.21-4.96,3.3-7.45c4.72-10.78,10.58-20.9,17.63-30.33c2.34-3.13,5.48-4.67,9.38-4.54
	C86.28,19.59,88.11,20.29,89.96,21.21z M56.67,63.04c1.65,0,3.21-0.03,4.77,0.02c0.61,0.02,0.9-0.22,1.17-0.73
	c1.44-2.69,2.86-5.38,4.39-8.02c4.4-7.62,14.34-9.56,21.32-4.2c0.16,0.12,0.33,0.22,0.69,0.46c-4.33-5.97-12.66-8.05-19.25-4.99
	c-2.87,1.33-5.12,3.51-7.6,5.36c-0.22,0.17-0.35,0.49-0.47,0.76c-1.6,3.55-3.19,7.1-4.78,10.65C56.82,62.54,56.77,62.74,56.67,63.04
	z M11.17,40.58c4.42,6.25,8.82,12.51,15.53,16.67c2.32-2.6,5.2-3.48,8.68-2.68c-1.87-1.75-3.73-3.43-5.71-4.94
	C24.12,45.41,17.45,43.42,11.17,40.58z M40.95,20.01c-0.05-0.02-0.1-0.04-0.14-0.06c-0.09,0.11-0.18,0.22-0.26,0.33
	c-3.87,5.92-5.59,12.43-4.92,19.47c0.38,4.08,1.13,8.13,1.76,12.19c0.07,0.43,0.36,0.89,0.67,1.22c2.52,2.75,4.75,5.72,6.5,9.02
	c0.44,0.84,0.96,1,1.81,0.77c-0.14-0.36-0.25-0.67-0.37-0.97c-1.72-4.29-3.42-8.58-5.15-12.86c-1.8-4.43-2.75-9.04-2.38-13.81
	c0.26-3.27,0.94-6.51,1.47-9.75C40.24,23.71,40.61,21.87,40.95,20.01z M19.32,14.34c-0.06,0.01-0.11,0.02-0.17,0.04
	c0,0.21,0,0.42,0,0.63c-0.12,9.71,2.21,18.81,6.64,27.45c1.11,2.17,3.07,2.94,4.9,4.11C26.9,35.82,23.11,25.08,19.32,14.34z
	 M31.05,77.75c0.1-0.03,0.19-0.06,0.29-0.09c0.03-0.05,0.08-0.09,0.09-0.15c0.66-6.3,2.33-12.31,4.96-18.07
	c0.1-0.22-0.04-0.69-0.24-0.88c-2.22-2.12-5.92-1.61-7.51,1.05c-0.25,0.41-0.42,0.97-0.38,1.44c0.26,3.03,0.45,6.08,0.95,9.08
	C29.63,72.7,30.42,75.21,31.05,77.75z M86.59,76.7c0.03-0.22,0.06-0.29,0.04-0.34c-2.06-4.93-4.02-9.9-6.21-14.77
	c-1.71-3.82-5.86-6.08-10.07-5.78c-0.35,0.02-0.85,0.06-1,0.29c-0.56,0.83-1,1.74-1.51,2.66c3.82,0.74,6.18,1.79,8.48,3.97
	c1,0.95,1.89,2.04,2.69,3.17C81.55,69.43,84.01,73.01,86.59,76.7z M38.05,62.97c1.27,0,2.41,0,3.67,0
	c-0.74-1.15-1.41-2.19-2.17-3.37C39.01,60.81,38.55,61.85,38.05,62.97z M71.38,63.02c0.03-0.11,0.05-0.21,0.08-0.32
	c-1.29-0.33-2.57-0.71-3.87-0.96c-1.42-0.27-1.53-0.14-1.89,1.28C67.59,63.02,69.48,63.02,71.38,63.02z"/>
</svg>
